<?xml version="1.0" encoding="utf-8"?>
<!-- Generator: Adobe Illustrator 19.2.1, SVG Export Plug-In . SVG Version: 6.00 Build 0)  -->
<svg version="1.1" id="Capa_1" xmlns="http://www.w3.org/2000/svg" xmlns:xlink="http://www.w3.org/1999/xlink" x="0px" y="0px"
	 viewBox="0 0 60 60" style="enable-background:new 0 0 60 60;" xml:space="preserve">
<style type="text/css">
	.st0{fill:#7383BF;}
	.st1{fill:#EFCE4A;}
	.st2{fill:#434C6D;}
	.st3{fill:#26B99A;}
	.st4{fill:#F7E6A1;}
</style>
<g>
	<path class="st0" d="M54.6,34.4c-0.7,0-0.9-0.4-0.9-0.9c0-0.7,0-1.2-0.1-1.9c0-0.7,0.4-0.9,0.8-1c0.5,0,0.9,0.4,1,0.8
		c0.1,0.8,0.1,1.3,0.1,2.1C55.5,34,55.2,34.4,54.6,34.4z M5.3,33.2L5.3,33.2c-0.7,0-0.9-0.5-0.9-0.9c0-0.8,0.1-1.3,0.2-2.1
		c0.1-0.5,0.7-0.8,1-0.8c0.5,0.1,0.8,0.7,0.8,1c-0.1,0.7-0.1,1.2-0.2,1.9C6.3,32.7,6,33.2,5.3,33.2z M54,28.8
		c-0.5,0-0.8-0.3-0.9-0.8c-0.1-0.7-0.3-1.1-0.5-1.9c-0.2-0.5,0.1-1,0.8-1.2c0.5-0.2,1,0.1,1.2,0.7c0.2,0.8,0.4,1.2,0.7,2
		c0.1,0.5-0.2,1-0.8,1.1C54.1,28.7,54,28.8,54,28.8z M6.3,27.6c-0.1,0-0.2,0-0.3,0c-0.5-0.2-0.8-0.8-0.8-1.1c0.2-0.8,0.4-1.2,0.8-2
		c0.2-0.7,0.8-0.8,1.3-0.7c0.5,0.2,0.8,0.8,0.7,1.2c-0.2,0.7-0.4,1.1-0.7,1.7C7.2,27.3,6.9,27.6,6.3,27.6z M52,23.4
		c-0.4,0-0.8-0.2-0.8-0.7c-0.3-0.7-0.7-1-0.8-1.6c-0.3-0.5-0.1-1,0.3-1.3c0.5-0.3,1-0.1,1.3,0.3c0.4,0.7,0.8,1.1,0.9,1.7
		c0.2,0.5,0,1-0.5,1.2C52.4,23.4,52.2,23.4,52,23.4z M8.5,22.2c-0.2,0-0.3,0-0.5-0.1c-0.5-0.3-0.8-0.9-0.4-1.3
		c0.3-0.7,0.8-1.1,1-1.7c0.3-0.5,0.8-0.7,1.3-0.3s0.7,0.8,0.3,1.3c-0.4,0.5-0.8,1-0.9,1.5C9.2,22.1,8.8,22.2,8.5,22.2z M48.9,18.6
		c-0.3,0-0.7-0.1-0.8-0.4c-0.4-0.5-0.8-0.9-1.2-1.3c-0.4-0.4-0.4-0.9,0-1.3c0.4-0.4,0.9-0.4,1.3,0c0.5,0.5,0.8,0.9,1.3,1.4
		c0.4,0.4,0.3,1-0.1,1.3C49.4,18.5,49.1,18.6,48.9,18.6z M11.9,17.7c-0.2,0-0.5-0.1-0.8-0.3c-0.4-0.4-0.4-0.9-0.1-1.3
		c0.5-0.5,0.9-0.9,1.4-1.4c0.4-0.4,0.9-0.4,1.3,0c0.4,0.4,0.4,0.9,0,1.3c-0.5,0.4-0.8,0.8-1.3,1.3C12.4,17.7,12.1,17.7,11.9,17.7z
		 M44.8,14.7c-0.2,0-0.4-0.1-0.7-0.2c-0.5-0.4-0.9-0.8-1.5-1c-0.5-0.3-0.7-0.9-0.3-1.3c0.3-0.5,0.8-0.7,1.3-0.3
		c0.7,0.4,1.1,0.8,1.6,1.1c0.4,0.3,0.5,0.9,0.2,1.3C45.5,14.6,45.2,14.7,44.8,14.7z M16.1,14.1c-0.3,0-0.7-0.2-0.8-0.4
		c-0.3-0.5-0.2-1,0.3-1.3c0.7-0.4,1.1-0.8,1.7-1c0.5-0.3,1-0.1,1.3,0.4c0.3,0.5,0.1,1-0.4,1.3c-0.7,0.3-1,0.8-1.5,0.9
		C16.6,13.9,16.4,14.1,16.1,14.1z M31.6,12.6h-2c-0.7,0-0.9-0.4-0.9-0.9c0-0.5,0.4-1,0.9-1h2c0.7,0,0.9,0.4,0.9,0.9
		C32.5,12.2,32.1,12.6,31.6,12.6z M39.9,11.8c-0.1,0-0.3,0-0.4-0.1c-0.7-0.3-1.1-0.5-1.7-0.8c-0.5-0.2-0.8-0.8-0.7-1.2
		c0.2-0.5,0.8-0.8,1.2-0.7c0.8,0.2,1.2,0.5,1.9,0.8c0.5,0.2,0.8,0.8,0.5,1.2C40.7,11.7,40.3,11.8,39.9,11.8z M21.2,11.4
		c-0.4,0-0.8-0.2-0.8-0.7c-0.2-0.5,0.1-1,0.7-1.2c0.7-0.2,1.2-0.5,2-0.8c0.5-0.2,1,0.1,1.1,0.8c0.2,0.5-0.1,1-0.8,1.1
		c-0.7,0.2-1.1,0.4-1.7,0.7C21.4,11.4,21.3,11.4,21.2,11.4z M27.2,11.4c-0.7,0-0.9-0.4-0.9-0.9V9.9c-0.3-0.1-0.5-0.4-0.5-0.8
		c-0.1-0.5,0.3-1,0.8-1c0.2,0,0.4,0,0.5-0.1l1-0.1v2.4C28,10.9,27.7,11.4,27.2,11.4z M34.6,10.2c-0.1,0-0.1,0-0.2,0
		c-0.4-0.1-0.8-0.1-1.1-0.2c-0.1,0.1-0.3,0.1-0.4,0.1c-0.7,0-0.9-0.4-0.9-0.9V8.1l1,0.1c0.7,0.1,1.2,0.2,1.9,0.3
		c0.5,0.1,0.8,0.7,0.8,1.1C35.3,9.9,35,10.2,34.6,10.2z"/>
	<path class="st0" d="M27.2,9.8H8.3c-0.7,0-0.9-0.4-0.9-0.9s0.3-1,0.9-1h18.9c0.7,0,0.9,0.4,0.9,0.9C28,9.3,27.7,9.8,27.2,9.8z"/>
	<path class="st0" d="M51.7,9.8H32.8c-0.7,0-0.9-0.4-0.9-0.9s0.4-0.9,0.9-0.9h18.9c0.7,0,0.9,0.4,0.9,0.9S52.4,9.8,51.7,9.8z"/>
	<path class="st1" d="M36.5,50.4H23.3v-3.9c0-3.5-2.8-6.4-6.4-6.4h-3.1l16-24.6l16,24.6H43c-3.6,0-6.4,2.8-6.4,6.4V50.4z"/>
	<rect x="23.3" y="50.4" class="st0" width="13.2" height="4.8"/>
	<rect x="25.2" y="55.2" class="st2" width="9.5" height="4.8"/>
	<g>
		<rect x="2.5" y="33.5" class="st2" width="5.7" height="5.7"/>
		<path class="st2" d="M9.2,40H1.6v-7.5h7.5V40z M3.5,38.2h3.7v-3.7H3.5V38.2z"/>
	</g>
	<g>
		<rect x="51.7" y="33.5" class="st2" width="5.7" height="5.7"/>
		<path class="st2" d="M58.4,40h-7.5v-7.5h7.5V40z M52.7,38.2h3.7v-3.7h-3.7V38.2z"/>
	</g>
	<g>
		<rect x="27.2" y="6" class="st2" width="5.7" height="5.7"/>
		<path class="st2" d="M33.7,12.6h-7.5V5h7.5V12.6z M28,10.7h3.7V7H28V10.7z"/>
	</g>
	<g>
		<circle class="st3" cx="5.3" cy="8.8" r="2.8"/>
		<path class="st3" d="M5.3,12.6c-2.1,0-3.7-1.7-3.7-3.7s1.7-3.7,3.7-3.7S9,7,9,8.9S7.4,12.6,5.3,12.6z M5.3,7c-1,0-2,0.8-2,2
			s0.9,1.9,2,1.9s2-0.8,2-2S6.4,7,5.3,7z"/>
	</g>
	<g>
		<circle class="st3" cx="54.6" cy="8.8" r="2.8"/>
		<path class="st3" d="M54.6,12.6c-2.1,0-3.7-1.7-3.7-3.7s1.7-3.7,3.7-3.7c2,0,3.7,1.7,3.7,3.7S56.7,12.6,54.6,12.6z M54.6,7
			c-1,0-2,0.8-2,2s0.9,1.9,2,1.9c1,0,2-0.8,2-2S55.6,7,54.6,7z"/>
	</g>
	<path class="st4" d="M30.9,35.4v-20c0-0.7-0.4-0.9-0.9-0.9c-0.5,0-0.9,0.4-0.9,0.9v20c-1.6,0.4-2.8,2-2.8,3.7
		c0,2.1,1.7,3.7,3.7,3.7c2.1,0,3.7-1.7,3.7-3.7C33.7,37.3,32.5,35.9,30.9,35.4z M30,41c-1,0-2-0.8-2-2c0-1,0.8-2,2-2
		c1.1,0,2,0.8,2,2C32,40.1,31,41,30,41z"/>
</g>
</svg>
